<svg id="Camada_1" data-name="Camada 1" xmlns="http://www.w3.org/2000/svg" viewBox="0 0 145 81.63"><defs><style>.cls-1{font-size:64.78px;font-family:Bauhaus93, "Bauhaus 93";}.cls-1,.cls-2{fill:#4d4d4d;}</style></defs><text class="cls-1" transform="translate(45.54 53.99) scale(1.62 1)">V</text><path class="cls-2" d="M3.74,78.34a1.51,1.51,0,0,1-1-.34,2.28,2.28,0,0,1-.7-.92,3.23,3.23,0,0,1-.25-1.29v-.6H3.11v.6a.9.9,0,0,0,.19.58.53.53,0,0,0,.44.25h7.68a.54.54,0,0,0,.44-.25,1,1,0,0,0,.18-.58V72.35a.9.9,0,0,0-.18-.57.55.55,0,0,0-.44-.24H3.74a1.47,1.47,0,0,1-1-.35,2.38,2.38,0,0,1-.7-.93A3.11,3.11,0,0,1,1.82,69V65.55a3.19,3.19,0,0,1,.25-1.29,2.38,2.38,0,0,1,.7-.93,1.57,1.57,0,0,1,1-.34h7.68a1.56,1.56,0,0,1,1,.34,2.29,2.29,0,0,1,.7.93,3.2,3.2,0,0,1,.26,1.29v.6H12v-.6a1,1,0,0,0-.18-.59.55.55,0,0,0-.44-.24H3.74A.54.54,0,0,0,3.3,65a.93.93,0,0,0-.19.59V69a.88.88,0,0,0,.19.58.53.53,0,0,0,.44.23h7.68a1.47,1.47,0,0,1,1,.36,2.33,2.33,0,0,1,.7.92,3.15,3.15,0,0,1,.26,1.28v3.44a3.23,3.23,0,0,1-.26,1.29,2.19,2.19,0,0,1-.7.92,1.5,1.5,0,0,1-1,.34Z" transform="translate(-1 3.28)"/><path class="cls-2" d="M15,63.67V61.93H16.3v1.74Zm0,14.67V66H16.3V78.34Z" transform="translate(-1 3.28)"/><path class="cls-2" d="M19.22,78a2.37,2.37,0,0,1-.71-.94,3.2,3.2,0,0,1-.26-1.29v-.17h1.31v.17a1,1,0,0,0,.18.59.57.57,0,0,0,.44.25h5.57a.55.55,0,0,0,.44-.25,1,1,0,0,0,.19-.59V73.87a1,1,0,0,0-.19-.59.54.54,0,0,0-.44-.24H20.18a1.47,1.47,0,0,1-1-.36,2.4,2.4,0,0,1-.71-.93,3.28,3.28,0,0,1-.26-1.3V68.56a3.2,3.2,0,0,1,.26-1.29,2.44,2.44,0,0,1,.71-.94,1.46,1.46,0,0,1,1-.35h5.57a1.54,1.54,0,0,1,1,.35,2.52,2.52,0,0,1,.7.94,3,3,0,0,1,.26,1.29v.17H26.38v-.17a1,1,0,0,0-.19-.59.54.54,0,0,0-.44-.24H20.18a.55.55,0,0,0-.44.24,1,1,0,0,0-.18.59v1.89a1,1,0,0,0,.18.59.57.57,0,0,0,.44.25h5.57a1.54,1.54,0,0,1,1,.35,2.52,2.52,0,0,1,.7.94,3,3,0,0,1,.26,1.29v1.89a3,3,0,0,1-.26,1.29,2.44,2.44,0,0,1-.7.94,1.54,1.54,0,0,1-1,.35H20.18A1.46,1.46,0,0,1,19.22,78Z" transform="translate(-1 3.28)"/><path class="cls-2" d="M30.25,78a2.33,2.33,0,0,1-.69-.94,3.2,3.2,0,0,1-.26-1.29V61.93h1.31V66h4v1.75h-4v8a1,1,0,0,0,.19.59.55.55,0,0,0,.44.25h3.39v1.74H31.24A1.54,1.54,0,0,1,30.25,78Z" transform="translate(-1 3.28)"/><path class="cls-2" d="M36.8,78a2.37,2.37,0,0,1-.71-.94,3.2,3.2,0,0,1-.26-1.29v-7.2a3.2,3.2,0,0,1,.26-1.29,2.44,2.44,0,0,1,.71-.94,1.47,1.47,0,0,1,1-.35h5.56a1.52,1.52,0,0,1,1,.35,2.42,2.42,0,0,1,.7.94,3,3,0,0,1,.27,1.29V73H37.14v2.72a.91.91,0,0,0,.19.59.55.55,0,0,0,.44.25h7.52v1.74H37.77A1.47,1.47,0,0,1,36.8,78Zm.34-6.7H44V68.56a.91.91,0,0,0-.19-.59.54.54,0,0,0-.44-.24H37.77a.54.54,0,0,0-.44.24.91.91,0,0,0-.19.59Z" transform="translate(-1 3.28)"/><path class="cls-2" d="M47,78.34V66H59.21a1.49,1.49,0,0,1,1,.35,2.52,2.52,0,0,1,.7.94,3.19,3.19,0,0,1,.25,1.29v9.78H59.85V68.56a.92.92,0,0,0-.2-.59.54.54,0,0,0-.44-.24H55.35a.54.54,0,0,0-.44.24,1,1,0,0,0-.18.59v9.78H53.4V68.56a.91.91,0,0,0-.19-.59.54.54,0,0,0-.44-.24H48.9a.54.54,0,0,0-.44.24,1,1,0,0,0-.18.59v9.78Z" transform="translate(-1 3.28)"/><path class="cls-2" d="M64.5,78.34a1.51,1.51,0,0,1-1-.35,2.44,2.44,0,0,1-.7-.94,3,3,0,0,1-.26-1.29V71.29h8.12V68.56a1,1,0,0,0-.18-.59.54.54,0,0,0-.44-.24h-7.5V66h7.5a1.49,1.49,0,0,1,1,.35,2.44,2.44,0,0,1,.71.94A3.2,3.2,0,0,1,72,68.56v9.78Zm0-1.74h6.19V73H63.88v2.72a1,1,0,0,0,.18.59A.55.55,0,0,0,64.5,76.6Z" transform="translate(-1 3.28)"/><path class="cls-2" d="M84.42,78.34,77.75,63h1.52l5.9,13.67L91.06,63h1.52L85.92,78.34Z" transform="translate(-1 3.28)"/><path class="cls-2" d="M94.07,63.67V61.93h1.31v1.74Zm0,14.67V66h1.31V78.34Z" transform="translate(-1 3.28)"/><path class="cls-2" d="M98.3,78a2.46,2.46,0,0,1-.71-.94,3.2,3.2,0,0,1-.26-1.29v-.17h1.31v.17a.91.91,0,0,0,.19.59.55.55,0,0,0,.44.25h5.56a.55.55,0,0,0,.44-.25.91.91,0,0,0,.19-.59V73.87a.91.91,0,0,0-.19-.59.54.54,0,0,0-.44-.24H99.27a1.5,1.5,0,0,1-1-.36,2.5,2.5,0,0,1-.71-.93,3.28,3.28,0,0,1-.26-1.3V68.56a3.2,3.2,0,0,1,.26-1.29,2.54,2.54,0,0,1,.71-.94,1.49,1.49,0,0,1,1-.35h5.56a1.52,1.52,0,0,1,1,.35,2.42,2.42,0,0,1,.7.94,3,3,0,0,1,.27,1.29v.17h-1.33v-.17a.91.91,0,0,0-.19-.59.54.54,0,0,0-.44-.24H99.27a.54.54,0,0,0-.44.24.91.91,0,0,0-.19.59v1.89a.91.91,0,0,0,.19.59.55.55,0,0,0,.44.25h5.56a1.52,1.52,0,0,1,1,.35,2.42,2.42,0,0,1,.7.94,3,3,0,0,1,.27,1.29v1.89a3,3,0,0,1-.27,1.29,2.35,2.35,0,0,1-.7.94,1.52,1.52,0,0,1-1,.35H99.27A1.49,1.49,0,0,1,98.3,78Z" transform="translate(-1 3.28)"/><path class="cls-2" d="M108.37,63.67V61.93h1.31v1.74Zm0,14.67V66h1.31V78.34Z" transform="translate(-1 3.28)"/><path class="cls-2" d="M112.67,78a2.26,2.26,0,0,1-.7-.94,3.2,3.2,0,0,1-.26-1.29V61.93H113V66h4v1.75h-4v8a1,1,0,0,0,.18.59.55.55,0,0,0,.44.25H117v1.74h-3.39A1.49,1.49,0,0,1,112.67,78Z" transform="translate(-1 3.28)"/><path class="cls-2" d="M125.28,78.34V65l-1.77,2.84h-1.72l3-4.8h1.79V78.34Z" transform="translate(-1 3.28)"/><path class="cls-2" d="M128.9,78.34V76.6h1.31v1.74Z" transform="translate(-1 3.28)"/><path class="cls-2" d="M133.32,78a2.35,2.35,0,0,1-.7-.94,3.19,3.19,0,0,1-.25-1.29V65.59a3.26,3.26,0,0,1,.25-1.31,2.5,2.5,0,0,1,.7-.94,1.55,1.55,0,0,1,1-.35h7.76a1.52,1.52,0,0,1,1,.35,2.52,2.52,0,0,1,.71.94,3.26,3.26,0,0,1,.26,1.31V75.76a3.2,3.2,0,0,1-.26,1.29A2.37,2.37,0,0,1,143,78a1.47,1.47,0,0,1-1,.35H134.3A1.49,1.49,0,0,1,133.32,78Zm.36-3.51,8.83-9.72H134.3a.54.54,0,0,0-.44.25,1,1,0,0,0-.18.58Zm.16,2.12h8.22a.55.55,0,0,0,.44-.25.91.91,0,0,0,.19-.59V66.87Z" transform="translate(-1 3.28)"/><rect class="cls-2" y="11.47" width="34.75" height="14.38" rx="3"/><rect class="cls-2" x="14.38" y="28.24" width="34.75" height="14.38" rx="3"/><rect class="cls-2" x="26.36" y="45.02" width="34.75" height="14.38" rx="3"/><rect class="cls-2" x="111.25" y="8.18" width="34.75" height="14.38" rx="3" transform="translate(256.25 34.03) rotate(-180)"/><rect class="cls-2" x="96.87" y="24.96" width="34.75" height="14.38" rx="3" transform="translate(227.49 67.58) rotate(-180)"/><rect class="cls-2" x="84.88" y="41.74" width="34.75" height="14.38" rx="3" transform="translate(203.52 101.13) rotate(-180)"/></svg>